name ./resultDataOpenSim/trcMotMarkerGrf/sub10/grf-02-04.mot
datacolumns 19
datarows 22
range 1.46800000 1.55200000
endheader

                time	     ground_force_vx	     ground_force_vy	     ground_force_vz	     ground_force_px	     ground_force_py	     ground_force_pz	   l_ground_force_vx	   l_ground_force_vy	   l_ground_force_vz	   l_ground_force_px	   l_ground_force_py	   l_ground_force_pz	     ground_torque_x	     ground_torque_y	     ground_torque_z	   l_ground_torque_x	   l_ground_torque_y	   l_ground_torque_z	
          1.46800000	        -24.31644878	        419.89104400	        -18.65036723	          0.79674863	          0.00000000	          0.03069658	          0.00000000	          0.00000000	          0.00000000	          0.00000000	          0.00000000	          0.00000000	          0.00000000	          2.38841781	          0.00000000	          0.00000000	          0.00000000	          0.00000000	
          1.47200000	        -25.16643337	        412.53067285	        -18.80447555	          0.79947211	          0.00000000	          0.03067954	          0.00000000	          0.00000000	          0.00000000	          0.00000000	          0.00000000	          0.00000000	          0.00000000	          2.45267449	          0.00000000	          0.00000000	          0.00000000	          0.00000000	
          1.47600000	        -26.06787898	        406.04447752	        -19.02968608	          0.80221909	          0.00000000	          0.03065900	          0.00000000	          0.00000000	          0.00000000	          0.00000000	          0.00000000	          0.00000000	          0.00000000	          2.51273590	          0.00000000	          0.00000000	          0.00000000	          0.00000000	
          1.48000000	        -26.35718428	        400.37829183	        -19.16566511	          0.80484057	          0.00000000	          0.03064034	          0.00000000	          0.00000000	          0.00000000	          0.00000000	          0.00000000	          0.00000000	          0.00000000	          2.55575945	          0.00000000	          0.00000000	          0.00000000	          0.00000000	
          1.48400000	        -25.59662821	        395.49656304	        -19.08593094	          0.80723207	          0.00000000	          0.03062509	          0.00000000	          0.00000000	          0.00000000	          0.00000000	          0.00000000	          0.00000000	          0.00000000	          2.57472768	          0.00000000	          0.00000000	          0.00000000	          0.00000000	
          1.48800000	        -23.68364162	        391.38287115	        -18.73632514	          0.80935797	          0.00000000	          0.03061024	          0.00000000	          0.00000000	          0.00000000	          0.00000000	          0.00000000	          0.00000000	          0.00000000	          2.56942899	          0.00000000	          0.00000000	          0.00000000	          0.00000000	
          1.49200000	        -20.85727798	        388.03676805	        -18.15384379	          0.81124514	          0.00000000	          0.03059502	          0.00000000	          0.00000000	          0.00000000	          0.00000000	          0.00000000	          0.00000000	          0.00000000	          2.54582238	          0.00000000	          0.00000000	          0.00000000	          0.00000000	
          1.49600000	        -17.61133378	        385.45743670	        -17.45498205	          0.81296909	          0.00000000	          0.03058350	          0.00000000	          0.00000000	          0.00000000	          0.00000000	          0.00000000	          0.00000000	          0.00000000	          2.51456739	          0.00000000	          0.00000000	          0.00000000	          0.00000000	
          1.50000000	        -14.54555289	        383.61882604	        -16.79742152	          0.81462697	          0.00000000	          0.03057799	          0.00000000	          0.00000000	          0.00000000	          0.00000000	          0.00000000	          0.00000000	          0.00000000	          2.48903459	          0.00000000	          0.00000000	          0.00000000	          0.00000000	
          1.50400000	        -12.19288709	        382.47337228	        -16.33451529	          0.81632315	          0.00000000	          0.03058205	          0.00000000	          0.00000000	          0.00000000	          0.00000000	          0.00000000	          0.00000000	          0.00000000	          2.48266771	          0.00000000	          0.00000000	          0.00000000	          0.00000000	
          1.50800000	        -10.86707791	        381.97999616	        -16.18025411	          0.81812269	          0.00000000	          0.03059289	          0.00000000	          0.00000000	          0.00000000	          0.00000000	          0.00000000	          0.00000000	          0.00000000	          2.50578076	          0.00000000	          0.00000000	          0.00000000	          0.00000000	
          1.51200000	        -10.57459457	        382.11566704	        -16.39027371	          0.82002517	          0.00000000	          0.03060859	          0.00000000	          0.00000000	          0.00000000	          0.00000000	          0.00000000	          0.00000000	          0.00000000	          2.56262158	          0.00000000	          0.00000000	          0.00000000	          0.00000000	
          1.51600000	        -11.01576140	        382.86349399	        -16.95822781	          0.82197453	          0.00000000	          0.03063126	          0.00000000	          0.00000000	          0.00000000	          0.00000000	          0.00000000	          0.00000000	          0.00000000	          2.65001449	          0.00000000	          0.00000000	          0.00000000	          0.00000000	
          1.52000000	        -11.66981314	        384.20402438	        -17.82345343	          0.82386380	          0.00000000	          0.03066340	          0.00000000	          0.00000000	          0.00000000	          0.00000000	          0.00000000	          0.00000000	          0.00000000	          2.75845996	          0.00000000	          0.00000000	          0.00000000	          0.00000000	
          1.52400000	        -11.94032572	        386.12796791	        -18.88630848	          0.82555739	          0.00000000	          0.03070800	          0.00000000	          0.00000000	          0.00000000	          0.00000000	          0.00000000	          0.00000000	          0.00000000	          2.87540676	          0.00000000	          0.00000000	          0.00000000	          0.00000000	
          1.52800000	        -11.32565723	        388.65769220	        -20.03198897	          0.82694931	          0.00000000	          0.03077235	          0.00000000	          0.00000000	          0.00000000	          0.00000000	          0.00000000	          0.00000000	          0.00000000	          2.98932562	          0.00000000	          0.00000000	          0.00000000	          0.00000000	
          1.53200000	         -9.56216866	        391.85521100	        -21.15984854	          0.82799492	          0.00000000	          0.03086142	          0.00000000	          0.00000000	          0.00000000	          0.00000000	          0.00000000	          0.00000000	          0.00000000	          3.09291197	          0.00000000	          0.00000000	          0.00000000	          0.00000000	
          1.53600000	         -6.68935278	        395.81144651	        -22.20757822	          0.82871691	          0.00000000	          0.03097559	          0.00000000	          0.00000000	          0.00000000	          0.00000000	          0.00000000	          0.00000000	          0.00000000	          3.18436468	          0.00000000	          0.00000000	          0.00000000	          0.00000000	
          1.54000000	         -3.02135152	        400.62702625	        -23.16267842	          0.82919223	          0.00000000	          0.03111050	          0.00000000	          0.00000000	          0.00000000	          0.00000000	          0.00000000	          0.00000000	          0.00000000	          3.26675062	          0.00000000	          0.00000000	          0.00000000	          0.00000000	
          1.54400000	          0.95123919	        406.39363955	        -24.06073470	          0.82952559	          0.00000000	          0.03124950	          0.00000000	          0.00000000	          0.00000000	          0.00000000	          0.00000000	          0.00000000	          0.00000000	          3.34625806	          0.00000000	          0.00000000	          0.00000000	          0.00000000	
          1.54800000	          4.69546318	        413.17899187	        -24.96982942	          0.82983119	          0.00000000	          0.03137095	          0.00000000	          0.00000000	          0.00000000	          0.00000000	          0.00000000	          0.00000000	          0.00000000	          3.43025719	          0.00000000	          0.00000000	          0.00000000	          0.00000000	
          1.55200000	          7.77618902	        421.02103771	        -25.96160113	          0.83020429	          0.00000000	          0.03145964	          0.00000000	          0.00000000	          0.00000000	          0.00000000	          0.00000000	          0.00000000	          0.00000000	          3.52567437	          0.00000000	          0.00000000	          0.00000000	          0.00000000	
